<svg width="573" height="543" xmlns="http://www.w3.org/2000/svg" xmlns:xlink="http://www.w3.org/1999/xlink" overflow="hidden"><defs><clipPath id="clip0"><rect x="467" y="88" width="573" height="543"/></clipPath></defs><g clip-path="url(#clip0)" transform="translate(-467 -88)"><path d="M663.853 89 839.428 89 840.725 101.911C851.747 155.96 899.406 196.617 956.529 196.617 964.69 196.617 972.657 195.787 980.352 194.207L984 193.266 984 204 521 204 521 193.71 522.928 194.207C530.623 195.787 538.59 196.617 546.751 196.617 603.874 196.617 651.533 155.96 662.555 101.911Z" fill="#FFFFFF" fill-rule="evenodd"/><path d="M985.016 193.091 1038.87 359.669 1031.02 363.447C994.161 383.473 969.136 422.53 969.136 467.431 969.136 487.841 974.307 507.044 983.409 523.8L984.09 524.921 984.047 524.862 975.159 531.425 974.011 531.796 875.918 228.36Z" fill="#FFFFFF" fill-rule="evenodd"/><path d="M664 516 842 516 842 630 840.933 630 836.585 625.243C815.184 603.965 785.62 590.805 752.964 590.805 720.308 590.805 690.744 603.965 669.344 625.243L664.995 630 664 630Z" fill="#FFFFFF" fill-rule="evenodd"/><path d="M754.455 236.062C686.96 236.062 632.244 290.733 632.244 358.172 632.244 425.612 686.96 480.282 754.455 480.282 821.95 480.282 876.665 425.612 876.665 358.172 876.665 290.733 821.95 236.062 754.455 236.062ZM550 199 954 199 954 521 550 521Z" fill="#FFFFFF" fill-rule="evenodd"/><path d="M593.985 435.357 732.555 537.688 664.442 629.922 525.873 527.591Z" fill="#FFFFFF" fill-rule="evenodd"/><rect x="0" y="0" width="172.259" height="114.658" fill="#FFFFFF" transform="matrix(-0.804427 0.594052 0.594052 0.804427 912.691 435.357)"/><rect x="543" y="198" width="140" height="55" fill="#FFFFFF"/><rect x="824" y="198" width="135" height="55" fill="#FFFFFF"/><path d="M567.947 410.355 618.432 425.421 585.644 535.291 535.159 520.224Z" fill="#FFFFFF" fill-rule="evenodd"/><path d="M885.042 426.249 933.929 406.606 976.678 512.996 927.792 532.639Z" fill="#FFFFFF" fill-rule="evenodd"/><path d="M0 0 175.066 0 176.248 8.62383C183.964 49.8602 213.429 85.6859 256.154 99.4977 275.574 105.776 295.436 106.763 314.18 103.256L315.456 102.953 315.386 102.976 318.897 113.452 318.897 114.658 0 114.658Z" fill="#FFFFFF" fill-rule="evenodd" transform="matrix(-0.307602 0.951515 0.951515 0.307602 521.66 193.092)"/><path d="M755.525 237.599C688.687 237.599 634.504 291.782 634.504 358.62 634.504 425.458 688.687 479.641 755.525 479.641 822.363 479.641 876.547 425.458 876.547 358.62 876.547 291.782 822.363 237.599 755.525 237.599ZM754.5 217C832.648 217 896 280.352 896 358.5 896 436.648 832.648 500 754.5 500 676.352 500 613 436.648 613 358.5 613 280.352 676.352 217 754.5 217Z" fill="#A7A7AC" fill-rule="evenodd"/></g></svg>