<svg width="572" height="546" xmlns="http://www.w3.org/2000/svg" xmlns:xlink="http://www.w3.org/1999/xlink" overflow="hidden"><defs><clipPath id="clip0"><rect x="353" y="87" width="572" height="546"/></clipPath></defs><g clip-path="url(#clip0)" transform="translate(-353 -87)"><path d="M549.161 88 725.115 88 726.415 100.911C737.461 154.96 785.224 195.617 842.47 195.617 850.648 195.617 858.633 194.787 866.344 193.207L870 192.266 870 203 406 203 406 192.71 407.932 193.207C415.644 194.787 423.628 195.617 431.806 195.617 489.053 195.617 536.815 154.96 547.861 100.911Z" fill="#1E1E1E" fill-rule="evenodd"/><path d="M870.38 194.7 924.231 361.278 916.389 365.055C879.525 385.081 854.5 424.138 854.5 469.04 854.5 489.45 859.671 508.652 868.773 525.408L869.454 526.529 869.411 526.47 860.523 533.034 859.375 533.404 761.282 229.969Z" fill="#1E1E1E" fill-rule="evenodd"/><path d="M549 517 727 517 727 632 725.933 632 721.585 627.201C700.184 605.737 670.62 592.461 637.964 592.461 605.308 592.461 575.744 605.737 554.344 627.201L549.995 632 549 632Z" fill="#1E1E1E" fill-rule="evenodd"/><path d="M639.961 238.062C572.299 238.062 517.448 292.733 517.448 360.172 517.448 427.612 572.299 482.282 639.961 482.282 707.623 482.282 762.474 427.612 762.474 360.172 762.474 292.733 707.623 238.062 639.961 238.062ZM435 201 840 201 840 523 435 523Z" fill="#1E1E1E" fill-rule="evenodd"/><path d="M479.349 436.966 617.919 539.296 549.806 631.53 411.237 529.199Z" fill="#1E1E1E" fill-rule="evenodd"/><rect x="0" y="0" width="172.259" height="114.658" fill="#1E1E1E" transform="matrix(-0.804427 0.594052 0.594052 0.804427 798.055 436.966)"/><rect x="428" y="199" width="140" height="55" fill="#1E1E1E"/><rect x="709" y="199" width="135" height="55" fill="#1E1E1E"/><path d="M453.311 411.963 503.796 427.029 471.008 536.899 420.523 521.833Z" fill="#1E1E1E" fill-rule="evenodd"/><path d="M770.406 427.858 819.293 408.214 862.042 514.604 813.156 534.248Z" fill="#1E1E1E" fill-rule="evenodd"/><path d="M0 0 175.066 0 176.248 8.62383C183.964 49.8602 213.429 85.6859 256.154 99.4977 275.574 105.776 295.436 106.763 314.18 103.256L315.456 102.953 315.386 102.976 318.897 113.452 318.897 114.658 0 114.658Z" fill="#1E1E1E" fill-rule="evenodd" transform="matrix(-0.307602 0.951515 0.951515 0.307602 407.024 194.7)"/><path d="M639.014 238.38C572.885 238.38 519.276 291.989 519.276 358.119 519.276 424.248 572.885 477.857 639.014 477.857 705.144 477.857 758.753 424.248 758.753 358.119 758.753 291.989 705.144 238.38 639.014 238.38ZM638 218C715.32 218 778 280.68 778 358 778 435.32 715.32 498 638 498 560.68 498 498 435.32 498 358 498 280.68 560.68 218 638 218Z" fill="#DADADA" fill-rule="evenodd"/></g></svg>